# xmcd
#
# Track frame offsets: 
#        150
#        19050
#        46872
#        66507
#        99467
#        115670
#        139123
#        155385
#        176280
#        189635
#        218742
#
# Disc length: 3138 seconds
#
# Revision: 0
# Processed by: cddbd v1.5.1PL0 Copyright (c) Steve Scherf et al.
# Submitted via: ExactAudioCopy v0.95a5
#
DISCID=900c400b
DTITLE=Magic Slim and The Teardrops - Chicago Blues Session Vol. 3
DYEAR=1900
DGENRE=Blues
TTITLE0=Mama Talk To Your Daughter
TTITLE1=Bad Avenue
TTITLE2=Gambler
TTITLE3=So Easy To Love You
TTITLE4=I Got Money
TTITLE5=A'int That Nice
TTITLE6=I'm Good
TTITLE7=Bad Luck
TTITLE8=Think
TTITLE9=She Moves Me
TTITLE10=The Moon Is Full
EXTD=
EXTT0=
EXTT1=
EXTT2=
EXTT3=
EXTT4=
EXTT5=
EXTT6=
EXTT7=
EXTT8=
EXTT9=
EXTT10=
PLAYORDER=
